<?xml version="1.0" encoding="UTF-8" standalone="no"?>
<!DOCTYPE svg PUBLIC "-//W3C//DTD SVG 1.1//EN"
 "http://www.w3.org/Graphics/SVG/1.1/DTD/svg11.dtd">
<!-- Generated by graphviz version 2.38.0 (20140413.2041)
 -->
<!-- Title: erd Pages: 1 -->
<svg width="1324pt" height="552pt"
 viewBox="0.00 0.00 1324.00 552.28" xmlns="http://www.w3.org/2000/svg" xmlns:xlink="http://www.w3.org/1999/xlink">
<g id="graph0" class="graph" transform="scale(1 1) rotate(0) translate(4 548.282)">
<title>erd</title>
<polygon fill="white" stroke="none" points="-4,4 -4,-548.282 1320,-548.282 1320,4 -4,4"/>
<!-- Query -->
<g id="node1" class="node"><title>Query</title>
<polygon fill="none" stroke="black" points="8,-330 8,-355 394,-355 394,-330 8,-330"/>
<text text-anchor="start" x="181.01" y="-338.6" font-family="Times,serif" font-weight="bold" font-size="16.00">Query</text>
<polygon fill="none" stroke="black" points="8,-305 8,-330 394,-330 394,-305 8,-305"/>
<text text-anchor="start" x="111.025" y="-312.6" font-family="Times,serif" font-size="16.00">patient(id:Int!): PatientType</text>
<polygon fill="none" stroke="black" points="8,-280 8,-305 394,-305 394,-280 8,-280"/>
<text text-anchor="start" x="129.693" y="-287.6" font-family="Times,serif" font-size="16.00">userData: PatientType</text>
<polygon fill="none" stroke="black" points="8,-255 8,-280 394,-280 394,-255 8,-255"/>
<text text-anchor="start" x="112.366" y="-262.6" font-family="Times,serif" font-size="16.00">doctor(id:Int!): DoctorType</text>
<polygon fill="none" stroke="black" points="8,-230 8,-255 394,-255 394,-230 8,-230"/>
<text text-anchor="start" x="119.465" y="-237.6" font-family="Times,serif" font-size="16.00">allPatients: [PatientType]</text>
<polygon fill="none" stroke="black" points="8,-205 8,-230 394,-230 394,-205 8,-205"/>
<text text-anchor="start" x="119.478" y="-212.6" font-family="Times,serif" font-size="16.00">allDoctors: [DoctorType]</text>
<polygon fill="none" stroke="black" points="8,-180 8,-205 394,-205 394,-180 8,-180"/>
<text text-anchor="start" x="10.5976" y="-187.6" font-family="Times,serif" font-size="16.00">appointmentsByPatient(patientId:Int!): [AppointmentType]</text>
<polygon fill="none" stroke="black" points="8,-155 8,-180 394,-180 394,-155 8,-155"/>
<text text-anchor="start" x="11.9384" y="-162.6" font-family="Times,serif" font-size="16.00">appointmentsByDoctor(doctorId:Int!): [AppointmentType]</text>
</g>
<!-- PatientType -->
<g id="node2" class="node"><title>PatientType</title>
<polygon fill="none" stroke="black" points="446,-393 446,-418 654,-418 654,-393 446,-393"/>
<text text-anchor="start" x="511.342" y="-401.6" font-family="Times,serif" font-weight="bold" font-size="16.00">PatientType</text>
<polygon fill="none" stroke="black" points="446,-368 446,-393 654,-393 654,-368 446,-368"/>
<text text-anchor="start" x="530.667" y="-375.6" font-family="Times,serif" font-size="16.00">id: Int</text>
<polygon fill="none" stroke="black" points="446,-343 446,-368 654,-368 654,-343 446,-343"/>
<text text-anchor="start" x="508.894" y="-350.6" font-family="Times,serif" font-size="16.00">name: String</text>
<polygon fill="none" stroke="black" points="446,-318 446,-343 654,-343 654,-318 446,-318"/>
<text text-anchor="start" x="525.788" y="-325.6" font-family="Times,serif" font-size="16.00">age: Int</text>
<polygon fill="none" stroke="black" points="446,-293 446,-318 654,-318 654,-293 446,-293"/>
<text text-anchor="start" x="476.901" y="-300.6" font-family="Times,serif" font-size="16.00">medicalHistory: String</text>
<polygon fill="none" stroke="black" points="446,-268 446,-293 654,-293 654,-268 446,-268"/>
<text text-anchor="start" x="448.92" y="-275.6" font-family="Times,serif" font-size="16.00">medications: [MedicationType]</text>
<polygon fill="none" stroke="black" points="446,-243 446,-268 654,-268 654,-243 446,-243"/>
<text text-anchor="start" x="486.688" y="-250.6" font-family="Times,serif" font-size="16.00">doctor: DoctorType</text>
<polygon fill="none" stroke="black" points="446,-218 446,-243 654,-243 654,-218 446,-218"/>
<text text-anchor="start" x="496.008" y="-225.6" font-family="Times,serif" font-size="16.00">password: String</text>
</g>
<!-- Query&#45;&gt;PatientType -->
<g id="edge1" class="edge"><title>Query:patientport&#45;&gt;PatientType</title>
<path fill="none" stroke="black" d="M395,-318C405.644,-318 416.702,-318 427.788,-318"/>
<polygon fill="black" stroke="black" points="427.966,-321.5 437.966,-318 427.966,-314.5 427.966,-321.5"/>
</g>
<!-- Query&#45;&gt;PatientType -->
<g id="edge2" class="edge"><title>Query:userDataport&#45;&gt;PatientType</title>
<path fill="none" stroke="black" d="M395,-293C405.68,-293 416.723,-293.593 427.765,-294.597"/>
<polygon fill="black" stroke="black" points="427.591,-298.097 437.894,-295.628 428.3,-291.133 427.591,-298.097"/>
</g>
<!-- Query&#45;&gt;PatientType -->
<g id="edge4" class="edge"><title>Query:allPatientsport&#45;&gt;PatientType</title>
<path fill="none" stroke="black" d="M395,-242C406.071,-242 417.17,-243.599 428.057,-246.333"/>
<polygon fill="black" stroke="black" points="427.413,-249.788 437.988,-249.15 429.323,-243.054 427.413,-249.788"/>
</g>
<!-- DoctorType -->
<g id="node3" class="node"><title>DoctorType</title>
<polygon fill="none" stroke="black" points="1156,-283 1156,-308 1308,-308 1308,-283 1156,-283"/>
<text text-anchor="start" x="1193.35" y="-291.6" font-family="Times,serif" font-weight="bold" font-size="16.00">DoctorType</text>
<polygon fill="none" stroke="black" points="1156,-258 1156,-283 1308,-283 1308,-258 1156,-258"/>
<text text-anchor="start" x="1212.67" y="-265.6" font-family="Times,serif" font-size="16.00">id: Int</text>
<polygon fill="none" stroke="black" points="1156,-233 1156,-258 1308,-258 1308,-233 1156,-233"/>
<text text-anchor="start" x="1190.89" y="-240.6" font-family="Times,serif" font-size="16.00">name: String</text>
<polygon fill="none" stroke="black" points="1156,-208 1156,-233 1308,-233 1308,-208 1156,-208"/>
<text text-anchor="start" x="1172.23" y="-215.6" font-family="Times,serif" font-size="16.00">department: String</text>
<polygon fill="none" stroke="black" points="1156,-183 1156,-208 1308,-208 1308,-183 1156,-183"/>
<text text-anchor="start" x="1178.01" y="-190.6" font-family="Times,serif" font-size="16.00">password: String</text>
<polygon fill="none" stroke="black" points="1156,-158 1156,-183 1308,-183 1308,-158 1156,-158"/>
<text text-anchor="start" x="1158.91" y="-165.6" font-family="Times,serif" font-size="16.00">patients: [PatientType]</text>
</g>
<!-- Query&#45;&gt;DoctorType -->
<g id="edge3" class="edge"><title>Query:doctorport&#45;&gt;DoctorType</title>
<path fill="none" stroke="black" d="M395,-268C469.923,-268 383.823,-379.248 438,-431 595.544,-581.491 720.071,-560.971 925,-487 1017.02,-453.786 1100.91,-379.529 1157.49,-319.837"/>
<polygon fill="black" stroke="black" points="1160.31,-321.949 1164.6,-312.262 1155.2,-317.159 1160.31,-321.949"/>
</g>
<!-- Query&#45;&gt;DoctorType -->
<g id="edge5" class="edge"><title>Query:allDoctorsport&#45;&gt;DoctorType</title>
<path fill="none" stroke="black" d="M395,-217C414.841,-217 418.342,-207.692 438,-205 536.635,-191.495 562.475,-202.553 662,-205 829.552,-209.12 1024.61,-220.055 1137.33,-226.977"/>
<polygon fill="black" stroke="black" points="1137.45,-230.49 1147.65,-227.613 1137.88,-223.504 1137.45,-230.49"/>
</g>
<!-- AppointmentType -->
<g id="node4" class="node"><title>AppointmentType</title>
<polygon fill="none" stroke="black" points="969.5,-129 969.5,-154 1104.5,-154 1104.5,-129 969.5,-129"/>
<text text-anchor="start" x="978.342" y="-137.6" font-family="Times,serif" font-weight="bold" font-size="16.00">AppointmentType</text>
<polygon fill="none" stroke="black" points="969.5,-104 969.5,-129 1104.5,-129 1104.5,-104 969.5,-104"/>
<text text-anchor="start" x="1017.67" y="-111.6" font-family="Times,serif" font-size="16.00">id: Int</text>
<polygon fill="none" stroke="black" points="969.5,-79 969.5,-104 1104.5,-104 1104.5,-79 969.5,-79"/>
<text text-anchor="start" x="999.894" y="-86.6" font-family="Times,serif" font-size="16.00">date: String</text>
<polygon fill="none" stroke="black" points="969.5,-54 969.5,-79 1104.5,-79 1104.5,-54 969.5,-54"/>
<text text-anchor="start" x="998.999" y="-61.6" font-family="Times,serif" font-size="16.00">time: String</text>
<polygon fill="none" stroke="black" points="969.5,-29 969.5,-54 1104.5,-54 1104.5,-29 969.5,-29"/>
<text text-anchor="start" x="972.347" y="-36.6" font-family="Times,serif" font-size="16.00">patient: PatientType</text>
<polygon fill="none" stroke="black" points="969.5,-4 969.5,-29 1104.5,-29 1104.5,-4 969.5,-4"/>
<text text-anchor="start" x="973.688" y="-11.6" font-family="Times,serif" font-size="16.00">doctor: DoctorType</text>
</g>
<!-- Query&#45;&gt;AppointmentType -->
<g id="edge6" class="edge"><title>Query:appointmentsByPatientport&#45;&gt;AppointmentType</title>
<path fill="none" stroke="black" d="M395,-192C416.077,-192 417.779,-177.947 438,-172 647.606,-110.355 710.201,-144.954 925,-105 933.447,-103.429 942.221,-101.639 950.966,-99.7502"/>
<polygon fill="black" stroke="black" points="951.795,-103.151 960.808,-97.5822 950.289,-96.3153 951.795,-103.151"/>
</g>
<!-- Query&#45;&gt;AppointmentType -->
<g id="edge7" class="edge"><title>Query:appointmentsByDoctorport&#45;&gt;AppointmentType</title>
<path fill="none" stroke="black" d="M395,-167C420.801,-167 414.363,-138.342 438,-128 608.018,-53.6105 831.054,-59.0748 950.777,-69.244"/>
<polygon fill="black" stroke="black" points="950.709,-72.7516 960.978,-70.1433 951.324,-65.7786 950.709,-72.7516"/>
</g>
<!-- PatientType&#45;&gt;DoctorType -->
<g id="edge9" class="edge"><title>PatientType:doctorport&#45;&gt;DoctorType</title>
<path fill="none" stroke="black" d="M655,-255C825.24,-255 1023.58,-245.285 1137.49,-238.767"/>
<polygon fill="black" stroke="black" points="1137.79,-242.256 1147.57,-238.186 1137.39,-235.267 1137.79,-242.256"/>
</g>
<!-- MedicationType -->
<g id="node5" class="node"><title>MedicationType</title>
<polygon fill="none" stroke="black" points="706.5,-449 706.5,-474 917.5,-474 917.5,-449 706.5,-449"/>
<text text-anchor="start" x="759.127" y="-457.6" font-family="Times,serif" font-weight="bold" font-size="16.00">MedicationType</text>
<polygon fill="none" stroke="black" points="706.5,-424 706.5,-449 917.5,-449 917.5,-424 706.5,-424"/>
<text text-anchor="start" x="792.667" y="-431.6" font-family="Times,serif" font-size="16.00">id: Int</text>
<polygon fill="none" stroke="black" points="706.5,-399 706.5,-424 917.5,-424 917.5,-399 706.5,-399"/>
<text text-anchor="start" x="770.894" y="-406.6" font-family="Times,serif" font-size="16.00">name: String</text>
<polygon fill="none" stroke="black" points="706.5,-374 706.5,-399 917.5,-399 917.5,-374 706.5,-374"/>
<text text-anchor="start" x="766.006" y="-381.6" font-family="Times,serif" font-size="16.00">dosage: String</text>
<polygon fill="none" stroke="black" points="706.5,-349 706.5,-374 917.5,-374 917.5,-349 706.5,-349"/>
<text text-anchor="start" x="752.674" y="-356.6" font-family="Times,serif" font-size="16.00">description: String</text>
<polygon fill="none" stroke="black" points="706.5,-324 706.5,-349 917.5,-349 917.5,-324 706.5,-324"/>
<text text-anchor="start" x="747.347" y="-331.6" font-family="Times,serif" font-size="16.00">patient: PatientType</text>
<polygon fill="none" stroke="black" points="706.5,-299 706.5,-324 917.5,-324 917.5,-299 706.5,-299"/>
<text text-anchor="start" x="748.688" y="-306.6" font-family="Times,serif" font-size="16.00">doctor: DoctorType</text>
<polygon fill="none" stroke="black" points="706.5,-274 706.5,-299 917.5,-299 917.5,-274 706.5,-274"/>
<text text-anchor="start" x="709.124" y="-281.6" font-family="Times,serif" font-size="16.00">appointment: AppointmentType</text>
</g>
<!-- PatientType&#45;&gt;MedicationType -->
<g id="edge8" class="edge"><title>PatientType:medicationsport&#45;&gt;MedicationType</title>
<path fill="none" stroke="black" d="M655,-280C666.345,-280 677.572,-281.855 688.489,-285.044"/>
<polygon fill="black" stroke="black" points="687.406,-288.373 697.999,-288.177 689.597,-281.724 687.406,-288.373"/>
</g>
<!-- DoctorType&#45;&gt;PatientType -->
<g id="edge10" class="edge"><title>DoctorType:patientsport&#45;&gt;PatientType</title>
<path fill="none" stroke="black" d="M1155,-170C1131.7,-170 1133.66,-191.406 1112,-200 939.124,-268.593 877.826,-213.528 698,-261 689.351,-263.283 680.515,-265.912 671.68,-268.762"/>
<polygon fill="black" stroke="black" points="670.495,-265.467 662.103,-271.934 672.696,-272.112 670.495,-265.467"/>
</g>
<!-- AppointmentType&#45;&gt;PatientType -->
<g id="edge11" class="edge"><title>AppointmentType:patientport&#45;&gt;PatientType</title>
<path fill="none" stroke="black" d="M968.5,-41C842.732,-41 725.852,-129.359 647.938,-206.269"/>
<polygon fill="black" stroke="black" points="645.126,-204.131 640.521,-213.673 650.071,-209.085 645.126,-204.131"/>
</g>
<!-- AppointmentType&#45;&gt;DoctorType -->
<g id="edge12" class="edge"><title>AppointmentType:doctorport&#45;&gt;DoctorType</title>
<path fill="none" stroke="black" d="M1105.5,-16C1167.85,-16 1199.72,-83.9695 1215.7,-143.828"/>
<polygon fill="black" stroke="black" points="1212.36,-144.91 1218.22,-153.737 1219.15,-143.182 1212.36,-144.91"/>
</g>
<!-- MedicationType&#45;&gt;PatientType -->
<g id="edge13" class="edge"><title>MedicationType:patientport&#45;&gt;PatientType</title>
<path fill="none" stroke="black" d="M705.5,-336C694.749,-336 683.605,-335.565 672.451,-334.829"/>
<polygon fill="black" stroke="black" points="672.445,-331.32 662.215,-334.074 671.93,-338.301 672.445,-331.32"/>
</g>
<!-- MedicationType&#45;&gt;DoctorType -->
<g id="edge14" class="edge"><title>MedicationType:doctorport&#45;&gt;DoctorType</title>
<path fill="none" stroke="black" d="M918.5,-311C994.004,-311 1076.8,-289.3 1138.18,-268.792"/>
<polygon fill="black" stroke="black" points="1139.5,-272.041 1147.85,-265.514 1137.25,-265.412 1139.5,-272.041"/>
</g>
<!-- MedicationType&#45;&gt;AppointmentType -->
<g id="edge15" class="edge"><title>MedicationType:appointmentport&#45;&gt;AppointmentType</title>
<path fill="none" stroke="black" d="M918.5,-286C976.232,-286 1005.8,-224.222 1020.75,-168.165"/>
<polygon fill="black" stroke="black" points="1024.23,-168.697 1023.29,-158.144 1017.44,-166.979 1024.23,-168.697"/>
</g>
</g>
</svg>
